# xmcd
#
# Track frame offsets: 
#        150
#        16414
#        29796
#        49491
#        65248
#        79167
#        100139
#        114920
#        131792
#        147000
#        162934
#        176595
#        194198
#        207957
#        225968
#        241982
#        270151
#        288093
#        305251
#        316982
#        332218
#
# Disc length: 4641 seconds
#
# Revision: 0
# Processed by: cddbd v1.5.2PL0 Copyright (c) Steve Scherf et al.
# Submitted via: ExactAudioCopy v0.99pb4
#
DISCID=30121f15
DTITLE=Various Artist - 100 Essential Tracks - Disco Hits - CD3
DYEAR=2010
DGENRE=Disco
TTITLE0=Heatwave - Boogie Nights
TTITLE1=The O'Jays - Love Train
TTITLE2=Johnnie Taylor - Disco Lady
TTITLE3=The Syvlers - Boogie Fever
TTITLE4=Tina Charles - Dr Love
TTITLE5=Barry Manilow - Who's Been Sleeping In My Bed
TTITLE6=Baccara - Yes Sir, I Can Boogie
TTITLE7=Boney M. - Ma Baker
TTITLE8=Gary Baartz - Shake Your Body
TTITLE9=T-Connection - Do What You Want To Do
TTITLE10=Andrea True Connection - More, More, More
TTITLE11=Tom Browne - Funkin' For Jamaica
TTITLE12=Wild Cherry - Play That Funky Music
TTITLE13=The Pointer Sisters - Jump (For My Love)
TTITLE14=The Weather Girls - It's Raining Men
TTITLE15=Ray Parker, Jr. - Is This A Love Thing
TTITLE16=Bruce Johnston - Pipeline
TTITLE17=Linx - You're Lying
TTITLE18=George McCrae - It's Been So Long
TTITLE19=The Delfonics - Didn't I (Blow Your Mind This Time)
TTITLE20=The Manhattans - Kiss And Say Goodbye
EXTD=
EXTT0=
EXTT1=
EXTT2=
EXTT3=
EXTT4=
EXTT5=
EXTT6=
EXTT7=
EXTT8=
EXTT9=
EXTT10=
EXTT11=
EXTT12=
EXTT13=
EXTT14=
EXTT15=
EXTT16=
EXTT17=
EXTT18=
EXTT19=
EXTT20=
PLAYORDER=
